name Run_300 01_newCOP3_v24.mot
datacolumns 19
datarows 61
range 1.360417 1.422917
DataType=double
version=3
OpenSimVersion=4.3-2021-08-27-4bc7ad9
endheader
time	R_ground_force_vx	R_ground_force_vy	R_ground_force_vz	R_ground_force_px	R_ground_force_py	R_ground_force_pz	L_ground_force_vx	L_ground_force_vy	L_ground_force_vz	L_ground_force_px	L_ground_force_py	L_ground_force_pz	R_ground_torque_x	R_ground_torque_y	R_ground_torque_z	L_ground_torque_x	L_ground_torque_y	L_ground_torque_z
1.360417	-80.718315	1783.623169	-3.182935	0.859066	0	-0.259581	0	0	0	0	0	0	0	-0.168037	0	0	0	0
1.361458	-77.11882799999999	1783.792603	-3.826403	0.85694	0	-0.259529	0	0	0	0	0	0	-0	0.053273	-0	0	0	0
1.3625	-73.53388200000001	1783.449585	-4.433159	0.854819	0	-0.259467	0	0	0	0	0	0	-0	0.264259	-0	0	0	0
1.363542	-69.962318	1782.611572	-4.996955	0.852705	0	-0.259393	0	0	0	0	0	0	-0	0.45953	-0	0	0	0
1.364583	-66.40271799999999	1781.294434	-5.512846	0.850595	0	-0.259306	0	0	0	0	0	0	-0	0.634508	-0	0	0	0
1.365625	-62.85334	1779.511963	-5.977305	0.848491	0	-0.259206	0	0	0	0	0	0	-0	0.785547	-0	0	0	0
1.366667	-59.312096	1777.276123	-6.388293	0.84639	0	-0.259094	0	0	0	0	0	0	-0	0.910015	-0	0	0	0
1.367708	-55.776478	1774.596313	-6.745275	0.844294	0	-0.258968	0	0	0	0	0	0	-0	1.006352	-0	0	0	0
1.36875	-52.243572	1771.479858	-7.049198	0.842201	0	-0.25883	0	0	0	0	0	0	-0	1.07409	-0	0	0	0
1.369792	-48.710075	1767.931396	-7.302424	0.8401110000000001	0	-0.25868	0	0	0	0	0	0	-0	1.113841	-0	0	0	0
1.370833	-45.172379	1763.953369	-7.508622	0.838023	0	-0.258519	0	0	0	0	0	0	-0	1.127248	-0	0	0	0
1.371875	-41.626705	1759.546021	-7.672611	0.835938	0	-0.258349	0	0	0	0	0	0	-0	1.116913	-0	0	0	0
1.372917	-38.069302	1754.707764	-7.800186	0.833855	0	-0.25817	0	0	0	0	0	0	-0	1.086292	-0	0	0	0
1.373958	-34.496624	1749.435181	-7.897906	0.831773	0	-0.257984	0	0	0	0	0	0	-0	1.039563	-0	0	0	0
1.375	-30.905594	1743.723999	-7.972864	0.829693	0	-0.257793	0	0	0	0	0	0	-0	0.98148	-0	0	0	0
1.376042	-27.293827	1737.568726	-8.032439	0.827614	0	-0.2576	0	0	0	0	0	0	-0	0.917208	-0	0	0	0
1.377083	-23.659843	1730.963867	-8.084052	0.825536	0	-0.257404	0	0	0	0	0	0	-0	0.852145	-0	0	0	0
1.378125	-20.003252	1723.903809	-8.134907	0.823458	0	-0.25721	0	0	0	0	0	0	-0	0.791743	-0	0	0	0
1.379167	-16.324888	1716.383423	-8.191755000000001	0.8213819999999999	0	-0.257017	0	0	0	0	0	0	-0	0.741327	-0	0	0	0
1.380208	-12.626884	1708.39856	-8.260661000000001	0.819306	0	-0.256829	0	0	0	0	0	0	-0	0.705914	-0	0	0	0
1.38125	-8.912677	1699.946411	-8.346803	0.817232	0	-0.256646	0	0	0	0	0	0	-0	0.690051	-0	0	0	0
1.382292	-5.186943	1691.026001	-8.454287000000001	0.815159	0	-0.25647	0	0	0	0	0	0	-0	0.697664	-0	0	0	0
1.383333	-1.455475	1681.638062	-8.586003	0.813087	0	-0.256303	0	0	0	0	0	0	-0	0.731921	-0	0	0	0
1.384375	2.275014	1671.785645	-8.743518	0.811018	0	-0.256145	0	0	0	0	0	0	-0	0.7951240000000001	-0	0	0	0
1.385417	5.997143	1661.474365	-8.926993	0.8089499999999999	0	-0.255997	0	0	0	0	0	0	-0	0.888626	-0	0	0	0
1.386458	9.703151	1650.712402	-9.135164	0.806885	0	-0.25586	0	0	0	0	0	0	-0	1.012771	-0	0	0	0
1.3875	13.385222	1639.510498	-9.365342	0.804823	0	-0.255734	0	0	0	0	0	0	-0	1.166869	-0	0	0	0
1.388542	17.035837	1627.882202	-9.613467	0.802764	0	-0.25562	0	0	0	0	0	0	-0	1.349193	-0	0	0	0
1.389583	20.648104	1615.843506	-9.874198	0.800709	0	-0.255517	0	0	0	0	0	0	-0	1.557016	-0	0	0	0
1.390625	24.216103	1603.413086	-10.141034	0.798657	0	-0.255424	0	0	0	0	0	0	-0	1.786665	-0	0	0	0
1.391667	27.735186	1590.61145	-10.406473	0.796608	0	-0.255342	0	0	0	0	0	0	-0	2.033607	-0	0	0	0
1.392708	31.20224	1577.461548	-10.662198	0.794563	0	-0.25527	0	0	0	0	0	0	-0	2.292562	-0	0	0	0
1.39375	34.615887	1563.987549	-10.89928	0.792521	0	-0.255206	0	0	0	0	0	0	-0	2.557626	-0	0	0	0
1.394792	37.976616	1550.214722	-11.108399	0.790481	0	-0.255149	0	0	0	0	0	0	-0	2.822427	-0	0	0	0
1.395833	41.286842	1536.169189	-11.280086	0.788444	0	-0.255098	0	0	0	0	0	0	-0	3.080272	-0	0	0	0
1.396875	44.550869	1521.877197	-11.404944	0.786407	0	-0.255052	0	0	0	0	0	0	-0	3.324326	-0	0	0	0
1.397917	47.774757	1507.36438	-11.4739	0.784372	0	-0.25501	0	0	0	0	0	0	-0	3.547778	-0	0	0	0
1.398958	50.966125	1492.655884	-11.478412	0.782335	0	-0.25497	0	0	0	0	0	0	-0	3.744012	-0	0	0	0
1.4	54.133842	1477.775146	-11.410689	0.780296	0	-0.254931	0	0	0	0	0	0	-0	3.90677	-0	0	0	0
1.401042	57.287666	1462.744141	-11.263879	0.7782520000000001	0	-0.254893	0	0	0	0	0	0	-0	4.030314	-0	0	0	0
1.402083	60.437817	1447.58252	-11.032231	0.776203	0	-0.254853	0	0	0	0	0	0	-0	4.109562	-0	0	0	0
1.403125	63.594513	1432.307495	-10.711233	0.774146	0	-0.254811	0	0	0	0	0	0	-0	4.140213	-0	0	0	0
1.404167	66.76752500000001	1416.933838	-10.297717	0.772079	0	-0.254767	0	0	0	0	0	0	-0	4.118853	-0	0	0	0
1.405208	69.96566799999999	1401.473511	-9.789923999999999	0.77	0	-0.254721	0	0	0	0	0	0	-0	4.043038	-0	0	0	0
1.40625	73.196434	1385.935791	-9.187544000000001	0.767906	0	-0.254671	0	0	0	0	0	0	-0	3.911347	-0	0	0	0
1.407292	76.46558400000001	1370.327026	-8.491713000000001	0.7657969999999999	0	-0.25462	0	0	0	0	0	0	-0	3.723418	-0	0	0	0
1.408333	79.776871	1354.651123	-7.704978	0.763671	0	-0.254566	0	0	0	0	0	0	-0	3.47995	-0	0	0	0
1.409375	83.131851	1338.90979	-6.831229	0.761524	0	-0.25451	0	0	0	0	0	0	-0	3.182683	-0	0	0	0
1.410417	86.529747	1323.102173	-5.8756	0.759358	0	-0.254454	0	0	0	0	0	0	-0	2.834356	-0	0	0	0
1.411458	89.967468	1307.225952	-4.844344	0.75717	0	-0.254397	0	0	0	0	0	0	-0	2.438638	-0	0	0	0
1.4125	93.43969	1291.2771	-3.744685	0.754959	0	-0.254342	0	0	0	0	0	0	-0	2.000035	-0	0	0	0
1.413542	96.93898	1275.250122	-2.584652	0.752727	0	-0.25429	0	0	0	0	0	0	-0	1.523787	-0	0	0	0
1.414583	100.456085	1259.13916	-1.372896	0.750471	0	-0.254241	0	0	0	0	0	0	-0	1.015745	-0	0	0	0
1.415625	103.980125	1242.937256	-0.118506	0.748193	0	-0.254197	0	0	0	0	0	0	-0	0.482234	-0	0	0	0
1.416667	107.498962	1226.637817	1.169184	0.745893	0	-0.25416	0	0	0	0	0	0	0	-0.070088	0	0	0	0
1.417708	110.999474	1210.234009	2.48079	0.743573	0	-0.25413	0	0	0	0	0	0	0	-0.634378	0	0	0	0
1.41875	114.467865	1193.71936	3.80705	0.741232	0	-0.25411	0	0	0	0	0	0	0	-1.203757	0	0	0	0
1.419792	117.889977	1177.088257	5.139007	0.738873	0	-0.254099	0	0	0	0	0	0	0	-1.77145	0	0	0	0
1.420833	121.251534	1160.335815	6.468156	0.736497	0	-0.254098	0	0	0	0	0	0	0	-2.33093	0	0	0	0
1.421875	124.538429	1143.458496	7.786588	0.734105	0	-0.25411	0	0	0	0	0	0	0	-2.876045	0	0	0	0
1.422917	127.736908	1126.453735	9.0871	0.731699	0	-0.254133	0	0	0	0	0	0	0	-3.401133	0	0	0	0
